<svg id="レイヤー_1" data-name="レイヤー 1" xmlns="http://www.w3.org/2000/svg" viewBox="0 0 706 115"><defs><style>.cls-1{fill:#fff;}</style></defs><title>アートボード 8</title><path class="cls-1" d="M25.19,110.28a46.22,46.22,0,0,0-3-5L10,86.9c-.9-1.42-2.07-3.44-3.21-5.66,0,.66,0,.66.19,2.4,0,.9.14,3,.14,4.11v15.46a53.15,53.15,0,0,0,.38,7.07H.63A52,52,0,0,0,1,103.16V78.84a39.57,39.57,0,0,0-.38-6.08H8a26.57,26.57,0,0,0,2.88,5l11.92,18c1.13,1.7,2.64,4.15,3.68,6-.19-1.84-.33-4.67-.33-6.65V79.26a40.25,40.25,0,0,0-.38-6.5h6.88a41.61,41.61,0,0,0-.37,6.5V104.2a36,36,0,0,0,.37,6.08Z"/><path class="cls-1" d="M41.73,96.8c0-8.77,5.47-14.38,14-14.38s14,5.56,14,14.28-5.52,14.47-13.91,14.47C47.2,111.17,41.73,105.61,41.73,96.8Zm6.08,0c0,5.79,3,9.38,7.92,9.38s7.92-3.54,7.92-9.29c0-6.08-2.88-9.57-7.88-9.57S47.81,90.9,47.81,96.8Z"/><path class="cls-1" d="M75.57,110.28v-6.89h6.88v6.89Z"/><path class="cls-1" d="M94.85,110.28a39.6,39.6,0,0,0,.37-6.13v-26H93a41.51,41.51,0,0,0-4.85.28v-6a25.62,25.62,0,0,0,4.71.29h4.34a33.82,33.82,0,0,0,4.8-.24,71.75,71.75,0,0,0-.37,7.78v23.85a40,40,0,0,0,.37,6.13Z"/><path class="cls-1" d="M138.92,101.46h11.4a34.06,34.06,0,0,0,6.13-.33v5.94a48.36,48.36,0,0,0-6-.23H122.13a48.36,48.36,0,0,0-6,.23v-5.94a34.06,34.06,0,0,0,6.13.33h10.65V82.09h-7.21a50.32,50.32,0,0,0-6,.23V76.43a33.34,33.34,0,0,0,6.12.33h21a33.4,33.4,0,0,0,6.13-.33v5.89a50.1,50.1,0,0,0-6-.23h-7.91Z"/><path class="cls-1" d="M170.4,104.05a44.9,44.9,0,0,0,13.95-3.48,31.54,31.54,0,0,0,14-11.55,39.77,39.77,0,0,0,4.81-9.43,20.37,20.37,0,0,0,5,4.62c-4,8.63-8.48,14.19-14.94,18.48-4.81,3.2-10.65,5.51-18,7.07a16.16,16.16,0,0,0-3.11.8Zm4-29.27a67,67,0,0,1,12.17,9.1L182.51,89a49.25,49.25,0,0,0-12-9.57Z"/><path class="cls-1" d="M224.36,84.07a73.66,73.66,0,0,1,12.54,6.41L234,95.81a54.86,54.86,0,0,0-12.77-6.89Zm-2.12,21.12a42,42,0,0,0,13.62-3.07c8.63-3,15.7-10.75,19.09-20.79a22.94,22.94,0,0,0,4.91,4.2c-5.85,14.28-15.79,22-32.67,25.31a30.56,30.56,0,0,0-3.3.8ZM228,72.66a77.87,77.87,0,0,1,12.54,6.08l-3,5.19a56.4,56.4,0,0,0-12.58-6.46Zm24.51-.94a30.23,30.23,0,0,1,4.95,6.93l-3.3,1.74a31.48,31.48,0,0,0-5-7Zm7.31,5.7A34.33,34.33,0,0,0,255,70.59l3.16-1.65a27.38,27.38,0,0,1,4.9,6.64Z"/><path class="cls-1" d="M270.88,100.09a32.3,32.3,0,0,0,6,.33H304a32.36,32.36,0,0,0,6-.33v6.32a46.73,46.73,0,0,0-5.94-.23H276.82a46.73,46.73,0,0,0-5.94.23Zm4.76-23a29.61,29.61,0,0,0,5.57.33h18.52a29.56,29.56,0,0,0,5.56-.33v6.22a40.48,40.48,0,0,0-5.51-.23H281.16a40.74,40.74,0,0,0-5.52.23Z"/><path class="cls-1" d="M341.11,83.17a22.17,22.17,0,0,0-.19,3.82c-.19,8.06-1.46,12.59-4.66,16.69-2.83,3.63-6.27,6-12.16,8.48a16.7,16.7,0,0,0-3.73-5.37,21.69,21.69,0,0,0,8.25-4c4.81-3.82,6.32-7.87,6.32-16.78a11.87,11.87,0,0,0-.24-2.83Zm19.14-5.94a13.42,13.42,0,0,0-1.89,3.3A29.84,29.84,0,0,1,351.1,90a29.17,29.17,0,0,1-5.65,3.91,16,16,0,0,0-4.24-4.29,21.93,21.93,0,0,0,6.88-4.34,19.68,19.68,0,0,0,4.48-6H327.82a44.71,44.71,0,0,0-6.41.28V73.7a37.75,37.75,0,0,0,6.5.38h24.61c2.83,0,3.25,0,4.57-.43Z"/><path class="cls-1" d="M392.53,110.75c-6.74,1.27-10.08,1.79-17.67,2.73a12.85,12.85,0,0,0-2.46.43l-.75-4.76c.19,0,.28,0,.38,0h.8c.71,0,2-.14,4.38-.37v-12a38.35,38.35,0,0,1-6.41,3.67A14.9,14.9,0,0,0,368.07,96a26.16,26.16,0,0,0,8-4A17.91,17.91,0,0,0,380,88.36h-5.61a31.23,31.23,0,0,0-4.76.23V84.4a29.09,29.09,0,0,0,4.76.23H388V82.7H377.64a36.45,36.45,0,0,0-4.43.19V79a33.08,33.08,0,0,0,4.43.18H388V77.28H376a35.62,35.62,0,0,0-4.72.24V73.27a24.91,24.91,0,0,0,4.72.29h5.09a20.2,20.2,0,0,0-2.5-3.3l5.09-1a31.16,31.16,0,0,1,3,4.34h8.25a25.78,25.78,0,0,0,2.35-4.34l5.28.94c-.28.52-.28.52-.85,1.47s-.7,1.13-1.27,1.93h5.14a25.38,25.38,0,0,0,4.76-.29v4.25a34.88,34.88,0,0,0-4.76-.24H393v1.93H404a34.43,34.43,0,0,0,4.43-.18v3.86A36.88,36.88,0,0,0,404,82.7H393v1.93h14.28a30.49,30.49,0,0,0,4.81-.23v4.19a34.19,34.19,0,0,0-4.81-.23h-5.56c3,3.2,6.5,5.28,11.92,6.93A17,17,0,0,0,411,99.77a34.72,34.72,0,0,1-7.73-4.44v4.72c0,1.36,0,1.93,0,2.92.85-.8,1.27-1.22,2.36-2.4l3.81,2.54c-4.19,3.3-4.62,3.63-6.83,4.9A49.29,49.29,0,0,0,413,109.33a17.5,17.5,0,0,0-2.64,4.67c-8.2-.94-13.25-2.59-17.86-5.84ZM382.07,96.14h16.5V94.53h-16.5Zm0,4.52h16.5v-1.6h-16.5Zm.05,7.68a88,88,0,0,0,8.95-1.32,19.06,19.06,0,0,1-3.11-3.11h-5.84Zm6.22-17.06a8.63,8.63,0,0,0-.19-2.07h5.14a7.28,7.28,0,0,0-.24,2.07h5.61a37,37,0,0,1-2.59-2.92H385.56a28,28,0,0,1-2.27,2.92Zm5.18,12.63a17.91,17.91,0,0,0,4.53,2.69,40.08,40.08,0,0,0,4-2.64c-.89,0-1.83,0-2,0Z"/><path class="cls-1" d="M462.57,86.52c-.28.71-.28.71-1,2.5a50.8,50.8,0,0,1-6.36,11.78,20.71,20.71,0,0,0,2.83,4.06,7,7,0,0,0,2.12,1.69c.19,0,.38-.28.61-.89.33-1.09.33-1.09.9-5.52a13.8,13.8,0,0,0,4.24,3.16c-1.08,6.36-2.73,9.14-5.32,9.14-2.41,0-6.13-3.15-8.87-7.58a43.4,43.4,0,0,1-11.4,8.24,15.68,15.68,0,0,0-3.59-4.1,35.24,35.24,0,0,0,12.68-8.67c-2-4.85-3-10.51-3.53-18.81H431.23c-.05,4.53-.05,4.53-.1,6.23h8.68a20.63,20.63,0,0,0,3.34-.19c-.09.84-.19,2.17-.28,4-.47,8.49-.75,11-1.56,13s-2.45,2.59-6.08,2.59c-1.32,0-2.07-.05-3.58-.14a18,18,0,0,0-1.22-5,28.7,28.7,0,0,0,4.57.38c1.46,0,1.88-.28,2.12-1.46a51.57,51.57,0,0,0,.71-8.54h-6.89a72.64,72.64,0,0,1-1.46,11.84,25.59,25.59,0,0,1-3.86,9.19,17.42,17.42,0,0,0-4.1-4,21.91,21.91,0,0,0,3.25-7.45c.94-4,1.41-10.23,1.41-18.62a46.09,46.09,0,0,0-.28-6.69c1.7.14,3.63.24,6.08.24h13.67c0-.38,0-1.61-.14-3.68a14.69,14.69,0,0,0-.24-3h5.61a39.36,39.36,0,0,0-.23,4.48v2.17h6.22a22.14,22.14,0,0,0-4.15-4.34l3.63-2.31a26.32,26.32,0,0,1,4.76,5l-2.45,1.7h1.41a25.82,25.82,0,0,0,5-.29v5.19c-1.56-.14-3.35-.24-5.75-.24h-8.48A64,64,0,0,0,453,95.62a32.6,32.6,0,0,0,4.53-11Z"/><path class="cls-1" d="M504.09,75.44c1.42,0,2,0,2.79-.09a5.44,5.44,0,1,1,5.42,5.42,7.61,7.61,0,0,1-.9-.09c-3.82,15.41-12.16,25-27.06,31.25a17.12,17.12,0,0,0-4.14-5.61c13.05-4.06,21.58-12.82,24.6-25.36H482.36a34.54,34.54,0,0,0-5.93.28V75.11a31.56,31.56,0,0,0,6,.33Zm5.14-.14a3.09,3.09,0,1,0,6.18,0,3.09,3.09,0,0,0-6.18,0Z"/><path class="cls-1" d="M531.62,107v3.3h-6.08a31.82,31.82,0,0,0,.19-4.06v-27a31.63,31.63,0,0,0-.19-4c1.13.1,2.12.15,4,.15h26.78a37.58,37.58,0,0,0,4-.15c-.1,1.23-.15,2.17-.15,3.92v27a32.52,32.52,0,0,0,.19,4.1h-6.08V107Zm22.62-26.26H531.62V101.6h22.62Z"/><path class="cls-1" d="M608,80.44a9.42,9.42,0,0,0-1.17,2.83c-2.79,8.39-5,12.58-9.48,17.81A47.5,47.5,0,0,1,580.54,113a15.66,15.66,0,0,0-4-5c12.35-4.71,20.32-13.15,24.09-25.41l-14.19.19A46.93,46.93,0,0,1,575.4,95a12.45,12.45,0,0,0-4.57-4.06A37.09,37.09,0,0,0,583,77.23a18.11,18.11,0,0,0,2.4-6.26l6.46,1.31a5.59,5.59,0,0,0-.8,1.42c-.38.85-.8,1.79-1.27,2.73a6.22,6.22,0,0,0-.33.66l-.38.71c.57,0,1.32-.09,2.26-.09l10.33-.15a22.48,22.48,0,0,0,2.45-.09,29.17,29.17,0,0,0-3.45-5.89l3.49-1.18a30.16,30.16,0,0,1,4.2,7.45l-2,.75ZM611,77.05A33.33,33.33,0,0,0,607,69.74l3.4-1.18a27.75,27.75,0,0,1,4.15,7.17Z"/><path class="cls-1" d="M658.12,86.94a22.12,22.12,0,0,0-1.32,3c-2.45,6.93-6,12.17-10.93,15.94-3.35,2.59-6.41,4.19-12.35,6.41a16.37,16.37,0,0,0-3.68-5.47c5.75-1.46,9.48-3.21,13.11-6.22,3.48-2.93,5.51-5.8,7.58-11H627.58a47.78,47.78,0,0,0-6,.23V84a33.61,33.61,0,0,0,6.12.33h22.44a20.7,20.7,0,0,0,5.33-.42ZM625.55,72.66a27.11,27.11,0,0,0,5.52.33h16.45a26.94,26.94,0,0,0,5.51-.33v5.8a35.8,35.8,0,0,0-5.42-.24H631a35.88,35.88,0,0,0-5.42.24Z"/><path class="cls-1" d="M686.12,72.8a14.31,14.31,0,0,0-1.23,3.4,277.78,277.78,0,0,1-9.33,26.86,184.8,184.8,0,0,0,19.61-2.4c-.52-1.13-1.09-2.17-2.22-4.29a58.48,58.48,0,0,0-4.47-7.49l5.32-2.08a110.07,110.07,0,0,1,11.41,21.83l-5.71,3a46.91,46.91,0,0,0-2.26-5.85l-1.69.38c-4.77,1-12.59,2-26.68,3.34a25.55,25.55,0,0,0-4.29.57l-.85-6.36H665c.95,0,2.08-.05,4.06-.14,2.5-5.94,4.38-11.27,6.83-19,2.22-6.93,3.11-10.28,3.44-13.06Z"/><path class="cls-1" d="M106.34,43.55a41.91,41.91,0,0,0,.41-6.64V8.78H104.3A44.19,44.19,0,0,0,99,9.09V2.6a27.92,27.92,0,0,0,5.11.31h4.69a36.09,36.09,0,0,0,5.21-.26,78.66,78.66,0,0,0-.4,8.43V36.91a43.66,43.66,0,0,0,.4,6.64Z"/><path class="cls-1" d="M129.83,40.23a14.31,14.31,0,0,1-3.37-5.15,34.15,34.15,0,0,1-2-11.75c0-5.41,1.22-11,3.11-14.14a14.52,14.52,0,0,1,13-7.1,14.84,14.84,0,0,1,10.78,4.14,14.39,14.39,0,0,1,3.37,5.16,34.22,34.22,0,0,1,2,11.84c0,6.28-1.38,11.8-3.78,15.12-2.86,4-7.1,6-12.41,6A14.7,14.7,0,0,1,129.83,40.23Zm16.29-3.93c2.3-2.4,3.57-7.15,3.57-13.12s-1.27-10.57-3.57-13.07A7.39,7.39,0,0,0,140.55,8a6.87,6.87,0,0,0-5.72,2.61c-2.24,2.65-3.37,6.84-3.37,12.41,0,5.36,1,9.8,2.61,12.15a8.12,8.12,0,0,0,12.05,1.17Z"/><path class="cls-1" d="M165.91,19.39a21,21,0,0,0,3.77.23h3.54a20.3,20.3,0,0,0,3.58-.23,47.76,47.76,0,0,0-.19,5.14V34.71a6.39,6.39,0,0,0,2.08,2.45,8.37,8.37,0,0,0,3.06,1.41,36.52,36.52,0,0,0,8.11.71,167.33,167.33,0,0,0,20.22-.94,19.09,19.09,0,0,0-1.42,5.37c-4.61.19-10.36.33-14.23.33-8.58,0-11.74-.24-14.33-1a11.65,11.65,0,0,1-6-4.34A48.68,48.68,0,0,1,167.75,44l-2.59-5a30.57,30.57,0,0,0,6.5-4.62V24.24h-2.54a17.3,17.3,0,0,0-3.21.24ZM170.06,1.9a55.2,55.2,0,0,1,8.15,8.53l-3.91,3.82a47.31,47.31,0,0,0-8-8.81ZM185,7.13V8.59c0,7.17-.28,15.23-.66,18.15a26.17,26.17,0,0,1-3.25,10.51A15.74,15.74,0,0,0,177,33.81c2.92-5.14,3.2-7.59,3.2-25.64A44.08,44.08,0,0,0,180,2.56a42.61,42.61,0,0,0,5,.19h17.54a38.3,38.3,0,0,0,4.9-.19,40.2,40.2,0,0,0-.19,5V33.25c0,2.35-.75,3.44-2.64,4a25.23,25.23,0,0,1-5.18.37c-.66,0-1.09,0-2.12,0a9.2,9.2,0,0,0-1-4.34c1.41.14,2.83.23,4.24.23,1.7,0,1.84-.09,1.84-1.17V7.13Zm6.22,7.07h-.8c-1.6,0-2.87.05-4,.15v-4a33.84,33.84,0,0,0,4,.18h.8v-.42A14.72,14.72,0,0,0,191,8h4.8a13.91,13.91,0,0,0-.18,2.17v.37h1.22a32.32,32.32,0,0,0,3.91-.18v4c-1.08-.1-2.31-.15-3.91-.15h-1.22v2.45h1.79a30.5,30.5,0,0,0,4-.18v4.14a34.82,34.82,0,0,0-4-.18h-7.59a37.34,37.34,0,0,0-4,.18V16.47a31.26,31.26,0,0,0,4,.18h1.36Zm-4.66,20.08a32.17,32.17,0,0,0,.14-3.48V25.14c0-1.13,0-2-.14-3.07a29.15,29.15,0,0,0,2.92.15h7.87a26,26,0,0,0,2.92-.15c0,1.18-.09,1.84-.09,3V29.9c0,1.18,0,1.79.09,2.5-.61,0-1.36-.1-2.16-.1h-7.26v2Zm4.29-5.61h5.32V25.75h-5.32Z"/><path class="cls-1" d="M224.5,38.9a40.77,40.77,0,0,0,.28,5.8h-5.51a41.92,41.92,0,0,0,.28-5.84V8.08a52.4,52.4,0,0,0-.19-5.28,43.18,43.18,0,0,0,4.86.19h8.34a40.18,40.18,0,0,0,4.81-.19c-.1,1.5-.14,2.54-.14,4.38v7.21c0,2.17,0,3.25.14,4.29-1.23-.09-2.69-.14-4.34-.14H224.5Zm0-29.74h8.11V6.8H224.5Zm0,5.75h8.11v-2.4H224.5Zm24.18,20.27c0,1.79,0,2.87.14,4.1,1,.09,2.73.24,3.58.24,1.32,0,1.75-.33,1.75-1.28V18.54h-9.29c-1.65,0-3.16.05-4.34.14.1-1.37.15-2.26.15-4.29V7.18c0-1.6,0-2.92-.15-4.38a40.73,40.73,0,0,0,4.81.19h9a42.61,42.61,0,0,0,4.86-.19c-.14,1.69-.19,2.87-.19,5.23V38.9c0,2.83-.57,4.06-2.26,4.76-1,.43-2.41.57-5.33.57-.66,0-.85,0-3.25-.14A18.15,18.15,0,0,0,247,39.23c-1.37,0-2.26,0-2.64,0h-10v2.64h-5a32.44,32.44,0,0,0,.33-4.72V25.61c0-1.65,0-3-.14-4.24a38.79,38.79,0,0,0,4.39.19h10.51a38.15,38.15,0,0,0,4.38-.19c-.09,1.22-.14,2.4-.14,4.24Zm-14.33-6.84H244V25.52h-9.62Zm0,6.89H244V32.16h-9.62Zm11-26.07h8.82V6.8h-8.82Zm0,5.75h8.82v-2.4h-8.82Z"/><path class="cls-1" d="M268.24,8.08c1,0,1.55,0,1.79,0,.85,0,.85,0,7.78-.47,3.44-.19,11.5-.61,24.08-1.22,3.87-.19,4.1-.19,4.86-.38l.33,6a6.91,6.91,0,0,0-1,0,21.14,21.14,0,0,0-9.34,2.54c-6,3.11-9.52,7.83-9.52,12.59,0,3.68,2.31,6.5,6.27,7.68a28.53,28.53,0,0,0,7,1.23c.05,0,.48,0,1-.05l-.85,6.41c-.61-.14-.71-.14-1.6-.28-5.19-.66-8.16-1.51-11-3.11a12.61,12.61,0,0,1-6.74-11.36,16.43,16.43,0,0,1,4.47-11.08,20.87,20.87,0,0,1,6.56-4.76c-3.82.57-6.74.85-15.89,1.51a59.31,59.31,0,0,0-7.82.94Zm32.47,9a30.16,30.16,0,0,1,5,6.92l-3.3,1.75a31.25,31.25,0,0,0-4.95-7Zm7.31,5.7A35.12,35.12,0,0,0,303.21,16l3.16-1.64a27,27,0,0,1,4.9,6.64Z"/><path class="cls-1" d="M337.43,2a30.89,30.89,0,0,0-.33,4.85c0,7.59,1.22,12.59,4.62,18.57a31.73,31.73,0,0,0,7.44,9,31.66,31.66,0,0,0,7.31,5.09,17.77,17.77,0,0,0-3.68,5.23c-5.75-4-8.62-6.69-12-11.12a37.53,37.53,0,0,1-6.27-12.87,33.59,33.59,0,0,1-3.67,9.52,33,33,0,0,1-7.26,9.05,40,40,0,0,1-7.31,5.42,13.91,13.91,0,0,0-3.68-4.85A31.42,31.42,0,0,0,322.91,32c6.08-7,8.63-14.7,8.63-26A31,31,0,0,0,331.35,2Z"/><path class="cls-1" d="M374.61,15.33a41.09,41.09,0,0,1-6.41,9.9,14.22,14.22,0,0,0-3.86-4,34.29,34.29,0,0,0,8-13.77,24.86,24.86,0,0,0,1-4.38l5.37,1.32a6.57,6.57,0,0,1-.42,1.22,11.76,11.76,0,0,0-.47,1.56c-.24.71-.66,1.89-1.27,3.54h7.68V7.13a37.73,37.73,0,0,0-.33-5.65h6a43.7,43.7,0,0,0-.28,5.61v3.63h9.8c2.41,0,4.44-.1,6.37-.29v5.19c-2-.19-4-.29-6.22-.29h-10V24h8.15a50.85,50.85,0,0,0,5.8-.28v5.18a52,52,0,0,0-5.8-.28h-8.15v10H401a51,51,0,0,0,6.56-.33v5.37a56.43,56.43,0,0,0-6.42-.33H372.26a62.24,62.24,0,0,0-6.7.33V38.29a54.52,54.52,0,0,0,6.56.33h12.11v-10H377a49.15,49.15,0,0,0-5.7.28V23.73a44.75,44.75,0,0,0,5.65.28h7.31V15.33Z"/><path class="cls-1" d="M434.66,5.3c-.23,1.36-.56,3.29-1,5.84-.14.8-.14.8-.28,1.41,1.42,0,2.08-.09,2.92-.09,3.11,0,5.42.85,7,2.5s2.21,4.05,2.21,8.34c0,8.11-1.36,14.57-3.62,17.16-1.32,1.55-2.74,2.12-5.24,2.12a22.06,22.06,0,0,1-7.26-1.41c.05-.9.1-1.61.1-2.08a18.18,18.18,0,0,0-.47-4A19.53,19.53,0,0,0,435.84,37c1.37,0,2.12-.9,2.83-3.21A42.07,42.07,0,0,0,439.89,23c0-4.34-1.08-5.61-4.71-5.61-1,0-1.74.05-2.83.14-2.31,9.66-4.43,15.37-9.61,25.64l-5.47-3c3.63-5,7.26-13.44,9.47-22.21-.7.1-.7.1-2.21.38l-4.29.71a18.41,18.41,0,0,0-1.94.47L417.74,14a96.88,96.88,0,0,0,10-1A65.9,65.9,0,0,0,429,3.46V2.61l6.12.61a10.71,10.71,0,0,0-.37,1.46ZM449,3.36a30.76,30.76,0,0,1,4.95,6.93L450.64,12a32,32,0,0,0-4.95-7Zm4.38,9.33a43.6,43.6,0,0,1,7.07,15l-5.37,2.69c-.94-4.95-3.86-11.88-6.46-15.32Zm2.93-3.62a34.82,34.82,0,0,0-4.81-6.84L454.65.58a27.24,27.24,0,0,1,4.9,6.65Z"/><path class="cls-1" d="M504.32,29.1c-.7.61-.7.61-2.82,2.73a54.74,54.74,0,0,1-6,5.09c5,1.79,9.05,2.5,16.69,2.78A18.64,18.64,0,0,0,509.6,45a66.54,66.54,0,0,1-11.73-2.4,39.54,39.54,0,0,1-7.31-2.78c-6,2.82-10.84,4-20.08,4.95a16.31,16.31,0,0,0-2.55-4.95c7.5-.1,11.69-.81,17.63-2.93a28.44,28.44,0,0,1-4.9-4.1,33.13,33.13,0,0,1-7.21,3.54,17.18,17.18,0,0,0-2.88-4.15,31.3,31.3,0,0,0,10-5.09,18.89,18.89,0,0,0,4.9-5.19l4.67,1.94a7.14,7.14,0,0,1-.81.94,7.92,7.92,0,0,0-.61.71,6.16,6.16,0,0,1-.42.56h8.91a18.81,18.81,0,0,0,4.1-.28ZM481.13,12.84a28,28,0,0,1-3.77,6,30.52,30.52,0,0,1-4.43,4.62c-.47-.38-.8-.66-1-.85-1.22-1-1.22-1-1.84-1.46l-.8-.57a5.85,5.85,0,0,1-.52-.37,27.47,27.47,0,0,0,4.1-3.63,18.31,18.31,0,0,0,3.68-5.89Zm-6.6-2.93a38.58,38.58,0,0,0-5.23.24v-5a40.1,40.1,0,0,0,5.56.28h12.45V4.45a14.65,14.65,0,0,0-.24-3.07H493a15.2,15.2,0,0,0-.23,3v1h12.49a44.84,44.84,0,0,0,5.7-.28v5c-1.55-.14-3.3-.24-5.56-.24h-7.45v9.57c0,2.64-1.08,3.54-4.38,3.54-1.51,0-2.78-.05-3.72-.1a10,10,0,0,0-1.47-4.62,20.76,20.76,0,0,0,3.59.33c.89,0,1.08-.18,1.08-.89V9.91h-4.38c-.14,4.25-.62,6.6-1.89,9a15.41,15.41,0,0,1-6.17,6,16.42,16.42,0,0,0-4.2-3.16c3.68-1.88,5.05-3.11,6.08-5.27a14.89,14.89,0,0,0,1.28-6.56Zm9.76,20.27a26.78,26.78,0,0,0,6.13,4.43,29.43,29.43,0,0,0,5.94-4.43Zm18.29-19a77.24,77.24,0,0,1,8.48,9l-4.43,3.34a43.55,43.55,0,0,0-7.92-9.8Z"/><path class="cls-1" d="M520.06,29.81c1.09-.76,2.93-2.36,8.53-7.55.1-2.87.1-2.92.19-6.78-5.7.42-5.7.42-7.16.7l-.33-5.32c.75,0,1.13.09,1.55.09.85,0,3.44-.14,6.08-.33a34.4,34.4,0,0,0,.15-3.53c0-.9,0-1.56,0-2V4.64a10.91,10.91,0,0,0-.19-2.08l6.08,0a20.53,20.53,0,0,0-.47,4.52c0,.9,0,.9-.14,2.22v.85a2.29,2.29,0,0,0,.66-.24l1.79,1.93A20.18,20.18,0,0,0,534.16,15c-.1,2-.14,3.06-.19,3.2l.09,0a8,8,0,0,1,1.13-.9c5.14-3.72,9-5.18,13.58-5.18A13.17,13.17,0,0,1,558,15.9a13.81,13.81,0,0,1,3.63,9.71c0,5.94-2.83,10.94-7.5,13.34a18.75,18.75,0,0,1-8.39,1.79,24.08,24.08,0,0,1-7-1,17.64,17.64,0,0,0-.89-6.12,21.59,21.59,0,0,0,8.39,1.74c5.65,0,9.61-4,9.61-9.76,0-5-3.11-8.2-8.06-8.2-3.91,0-8.53,2.41-13.71,7.12l0,4.9c0,6.74.14,12,.38,14.09h-6.13a47.76,47.76,0,0,0,.28-7.54V31.74a25,25,0,0,1,.09-2.78h-.09a15,15,0,0,1-2.07,2.21,27.8,27.8,0,0,0-3.63,4.06Z"/><path class="cls-1" d="M585.53,22.49c4.29-1.7,6.36-2.17,9.9-2.17,8.06,0,13.24,4.15,13.24,10.61,0,4.48-2.21,8.06-6.41,10.42A23.34,23.34,0,0,1,590.86,44c-4,0-7.26-.75-9.15-2.17a6.72,6.72,0,0,1-2.83-5.42c0-3.91,3.4-6.74,8.11-6.74a10.15,10.15,0,0,1,8.16,3.87,12.57,12.57,0,0,1,2.16,4.24c3.92-1.46,5.61-3.49,5.61-6.83,0-3.68-3.63-6.09-9.33-6.09a29.09,29.09,0,0,0-19.42,7.92L571,27.72a42.48,42.48,0,0,0,6.64-4.43A157.88,157.88,0,0,0,591.71,11l.84-.85,0,0c-1.79.24-4.81.43-13.34.8a16.33,16.33,0,0,0-2.26.24l-.24-5.66a42.12,42.12,0,0,0,5.56.29c4,0,9.76-.24,14.33-.57a7,7,0,0,0,2.92-.61l2.93,4.14A10.06,10.06,0,0,0,600,10.71c-2.35,2.17-5.79,5.23-7.4,6.6-.84.7-4.24,3.25-5.18,3.86a20.86,20.86,0,0,1-1.93,1.23Zm1.41,11.74c-1.69,0-2.78.85-2.78,2.17,0,1.88,2.13,3,5.61,3a12.63,12.63,0,0,0,2.45-.19C591.38,35.93,589.58,34.23,586.94,34.23Z"/></svg>